<svg width="80" height="80" viewBox="0 0 80 80" fill="none" xmlns="http://www.w3.org/2000/svg">
<rect opacity="0.3" width="80" height="80" rx="40" fill="white"/>
<rect x="8.31177" y="8.31177" width="63.3766" height="63.3766" rx="31.6883" fill="white"/>
<path d="M41.0191 32.8939L37.1003 30.1586C36.7979 29.9475 36.4435 29.8234 36.0755 29.7997C35.7076 29.776 35.3401 29.8536 35.0132 30.0241C34.6862 30.1946 34.4123 30.4515 34.2211 30.7668C34.03 31.0822 33.9289 31.4438 33.929 31.8126V47.7114C33.9289 48.0801 34.03 48.4418 34.2211 48.7571C34.4123 49.0725 34.6862 49.3293 35.0132 49.4999C35.3401 49.6704 35.7076 49.748 36.0755 49.7243C36.4435 49.7006 36.7979 49.5764 37.1003 49.3654L41.0191 46.6301L48.4886 41.4155C48.7548 41.2296 48.9723 40.9822 49.1225 40.6943C49.2726 40.4064 49.3511 40.0865 49.3511 39.7617C49.3511 39.437 49.2726 39.1171 49.1225 38.8292C48.9723 38.5412 48.7548 38.2938 48.4886 38.108L41.0191 32.8939Z" fill="#FA002C" stroke="white" stroke-width="3"/>
</svg>
