<svg width="36" height="44" viewBox="0 0 36 44" fill="none" xmlns="http://www.w3.org/2000/svg">
<path d="M29.08 20.92C31.16 21.96 32.74 23.32 33.82 25C34.94 26.68 35.5 28.62 35.5 30.82C35.5 33.42 34.76 35.7 33.28 37.66C31.8 39.58 29.72 41.08 27.04 42.16C24.36 43.2 21.26 43.72 17.74 43.72C14.22 43.72 11.12 43.2 8.44003 42.16C5.80003 41.08 3.74003 39.58 2.26003 37.66C0.820031 35.7 0.100031 33.42 0.100031 30.82C0.100031 28.62 0.640031 26.68 1.72003 25C2.84003 23.32 4.42003 21.96 6.46003 20.92C4.90003 19.96 3.70003 18.76 2.86003 17.32C2.02003 15.84 1.60003 14.16 1.60003 12.28C1.60003 9.84 2.28003 7.72 3.64003 5.92C5.00003 4.12 6.90003 2.74 9.34003 1.78C11.78 0.779999 14.58 0.279999 17.74 0.279999C20.94 0.279999 23.76 0.779999 26.2 1.78C28.68 2.74 30.6 4.12 31.96 5.92C33.32 7.72 34 9.84 34 12.28C34 14.16 33.58 15.84 32.74 17.32C31.9 18.76 30.68 19.96 29.08 20.92ZM17.74 7.42C15.78 7.42 14.2 7.9 13 8.86C11.84 9.78 11.26 11.06 11.26 12.7C11.26 14.3 11.84 15.56 13 16.48C14.16 17.4 15.74 17.86 17.74 17.86C19.74 17.86 21.34 17.4 22.54 16.48C23.74 15.56 24.34 14.3 24.34 12.7C24.34 11.06 23.74 9.78 22.54 8.86C21.34 7.9 19.74 7.42 17.74 7.42ZM17.74 36.58C20.18 36.58 22.1 36.04 23.5 34.96C24.94 33.84 25.66 32.36 25.66 30.52C25.66 28.68 24.94 27.22 23.5 26.14C22.1 25.06 20.18 24.52 17.74 24.52C15.34 24.52 13.44 25.06 12.04 26.14C10.64 27.22 9.94003 28.68 9.94003 30.52C9.94003 32.4 10.64 33.88 12.04 34.96C13.44 36.04 15.34 36.58 17.74 36.58Z" fill="#FA002C"/>
</svg>
