<svg width="35" height="43" viewBox="0 0 35 43" fill="none" xmlns="http://www.w3.org/2000/svg">
<path d="M16.74 15.78C22.66 15.78 27.02 16.96 29.82 19.32C32.66 21.68 34.08 24.84 34.08 28.8C34.08 31.36 33.44 33.7 32.16 35.82C30.88 37.9 28.92 39.58 26.28 40.86C23.68 42.1 20.46 42.72 16.62 42.72C13.66 42.72 10.74 42.34 7.86 41.58C5.02 40.78 2.6 39.66 0.6 38.22L4.44 30.78C6.04 31.98 7.88 32.92 9.96 33.6C12.04 34.24 14.18 34.56 16.38 34.56C18.82 34.56 20.74 34.08 22.14 33.12C23.54 32.16 24.24 30.82 24.24 29.1C24.24 27.3 23.5 25.94 22.02 25.02C20.58 24.1 18.06 23.64 14.46 23.64H3.72L5.88 -2.86102e-06H31.5V7.8H13.98L13.32 15.78H16.74Z" fill="#FA002C"/>
</svg>
