<svg width="30" height="30" viewBox="0 0 30 30" fill="none" xmlns="http://www.w3.org/2000/svg">
<path d="M25.0557 29.6406H5.08691C3.98702 29.6395 2.9325 29.2021 2.15476 28.4243C1.37702 27.6466 0.939593 26.5921 0.938477 25.4922V15.2969C0.939593 14.197 1.37702 13.1425 2.15476 12.3647C2.9325 11.587 3.98702 11.1496 5.08691 11.1484H12.1083C12.6491 11.1484 13.1678 10.9336 13.5502 10.5512C13.9326 10.1688 14.1474 9.65017 14.1474 9.10938C14.1485 8.00948 14.5859 6.95496 15.3637 6.17722C16.1414 5.39948 17.1959 4.96205 18.2958 4.96094H25.0557C26.1556 4.96205 27.2101 5.39948 27.9878 6.17722C28.7656 6.95496 29.203 8.00948 29.2041 9.10938V25.4922C29.2028 26.592 28.7653 27.6464 27.9876 28.4241C27.2099 29.2018 26.1555 29.6393 25.0557 29.6406ZM5.08691 13.2578C4.54612 13.2578 4.02748 13.4726 3.64508 13.855C3.26268 14.2374 3.04785 14.7561 3.04785 15.2969V25.4922C3.04785 26.033 3.26268 26.5516 3.64508 26.934C4.02748 27.3164 4.54612 27.5312 5.08691 27.5312H25.0557C25.5965 27.5312 26.1151 27.3164 26.4975 26.934C26.8799 26.5516 27.0947 26.033 27.0947 25.4922V9.10938C27.0947 8.56858 26.8799 8.04994 26.4975 7.66754C26.1151 7.28514 25.5965 7.07031 25.0557 7.07031H18.2958C17.755 7.07031 17.2364 7.28514 16.854 7.66754C16.4716 8.04994 16.2568 8.56858 16.2568 9.10938C16.2555 10.2092 15.818 11.2636 15.0403 12.0413C14.2626 12.819 13.2082 13.2565 12.1083 13.2578H5.08691Z" fill="#FA002C"/>
<path d="M5.50879 12.5911C5.22907 12.5911 4.9608 12.4799 4.76301 12.2822C4.56522 12.0844 4.4541 11.8161 4.4541 11.5364V1.76294C4.4541 1.48322 4.56522 1.21496 4.76301 1.01716C4.9608 0.81937 5.22907 0.708252 5.50879 0.708252H24.6338C24.9135 0.708252 25.1818 0.81937 25.3796 1.01716C25.5774 1.21496 25.6885 1.48322 25.6885 1.76294V5.34888C25.6885 5.6286 25.5774 5.89686 25.3796 6.09465C25.1818 6.29245 24.9135 6.40356 24.6338 6.40356C24.3541 6.40356 24.0858 6.29245 23.888 6.09465C23.6902 5.89686 23.5791 5.6286 23.5791 5.34888V2.81763H6.56348V11.5364C6.56348 11.8161 6.45236 12.0844 6.25457 12.2822C6.05677 12.4799 5.78851 12.5911 5.50879 12.5911Z" fill="#FA002C"/>
</svg>
