<svg width="34" height="31" viewBox="0 0 34 31" fill="none" xmlns="http://www.w3.org/2000/svg">
<path fill-rule="evenodd" clip-rule="evenodd" d="M2.85218 12.5264H8.58635V29.251H2.85218C2.32436 29.251 1.89648 28.675 1.89648 27.9645V13.8129C1.89648 13.1024 2.32436 12.5264 2.85218 12.5264Z" stroke="#FA002C" stroke-width="2.5" stroke-linecap="round" stroke-linejoin="round"/>
<path d="M8.58615 13.7807L14.1047 3.08846C14.92 1.50871 16.8616 0.889062 18.4413 1.7044C18.7364 1.85673 19.0062 2.05381 19.2411 2.28866C20.182 3.22961 20.7106 4.5058 20.7106 5.8365V10.8539H29.4925C30.212 10.8539 30.897 11.1629 31.3732 11.7023C31.8494 12.2418 32.071 12.9598 31.9818 13.6738L30.1003 27.0535C29.9433 28.3089 28.8761 29.251 27.6109 29.251H8.58615" stroke="#FA002C" stroke-width="2.5" stroke-linecap="round" stroke-linejoin="round"/>
</svg>
