<svg width="36" height="44" viewBox="0 0 36 44" fill="none" xmlns="http://www.w3.org/2000/svg">
<path d="M20.5601 16.66C23.2401 16.66 25.6801 17.2 27.8801 18.28C30.0801 19.36 31.8201 20.9 33.1001 22.9C34.3801 24.86 35.0201 27.14 35.0201 29.74C35.0201 32.54 34.3201 35 32.9201 37.12C31.5201 39.24 29.6001 40.88 27.1601 42.04C24.7601 43.16 22.0801 43.72 19.1201 43.72C13.2401 43.72 8.64012 41.92 5.32012 38.32C2.00012 34.72 0.340122 29.58 0.340122 22.9C0.340122 18.14 1.24012 14.06 3.04012 10.66C4.84012 7.26 7.34012 4.68 10.5401 2.92C13.7801 1.16 17.5201 0.279999 21.7601 0.279999C24.0001 0.279999 26.1401 0.539998 28.1801 1.06C30.2601 1.54 32.0201 2.24 33.4601 3.16L29.8601 10.3C27.7801 8.9 25.1601 8.2 22.0001 8.2C18.4401 8.2 15.6201 9.24 13.5401 11.32C11.4601 13.4 10.3401 16.42 10.1801 20.38C12.6601 17.9 16.1201 16.66 20.5601 16.66ZM18.5801 36.46C20.6601 36.46 22.3401 35.9 23.6201 34.78C24.9401 33.66 25.6001 32.14 25.6001 30.22C25.6001 28.3 24.9401 26.78 23.6201 25.66C22.3401 24.5 20.6201 23.92 18.4601 23.92C16.3401 23.92 14.6001 24.52 13.2401 25.72C11.8801 26.88 11.2001 28.38 11.2001 30.22C11.2001 32.06 11.8601 33.56 13.1801 34.72C14.5001 35.88 16.3001 36.46 18.5801 36.46Z" fill="#FA002C"/>
</svg>
