<svg width="44" height="44" viewBox="0 0 44 44" fill="none" xmlns="http://www.w3.org/2000/svg">
<path d="M22 44C34.1503 44 44 34.1503 44 22C44 9.84974 34.1503 0 22 0C9.84974 0 0 9.84974 0 22C0 34.1503 9.84974 44 22 44Z" fill="url(#paint0_linear_1_1559)"/>
<path d="M32.707 12.6586L28.7796 32.4672C28.7796 32.4672 28.2296 33.8422 26.7171 33.1805L17.6507 26.2281L14.3507 24.6383L8.79915 22.7734C8.79915 22.7734 7.94837 22.4727 7.86243 21.8109C7.77649 21.1492 8.82493 20.7969 8.82493 20.7969L30.8937 12.143C30.8937 12.1344 32.707 11.3352 32.707 12.6586Z" fill="white"/>
<path d="M16.9459 32.2438C16.9459 32.2438 16.6795 32.2181 16.3529 31.1782C16.0264 30.1384 14.3506 24.6384 14.3506 24.6384L27.6795 16.1735C27.6795 16.1735 28.4529 15.7095 28.4186 16.1735C28.4186 16.1735 28.5561 16.2595 28.1436 16.6376C27.7311 17.0243 17.6764 26.0649 17.6764 26.0649" fill="#D2E4F0"/>
<path d="M21.123 28.8922L17.5395 32.1664C17.5395 32.1664 17.2559 32.3813 16.9551 32.2438L17.6426 26.168" fill="#B5CFE4"/>
<defs>
<linearGradient id="paint0_linear_1_1559" x1="22" y1="0" x2="22" y2="43.8395" gradientUnits="userSpaceOnUse">
<stop stop-color="#41BCE7"/>
<stop offset="1" stop-color="#22A6DC"/>
</linearGradient>
</defs>
</svg>
