<svg width="35" height="43" viewBox="0 0 35 43" fill="none" xmlns="http://www.w3.org/2000/svg">
<path d="M22.96 17.1C26.64 17.7 29.46 19.08 31.42 21.24C33.38 23.36 34.36 26 34.36 29.16C34.36 31.6 33.72 33.86 32.44 35.94C31.16 37.98 29.2 39.62 26.56 40.86C23.96 42.1 20.76 42.72 16.96 42.72C14 42.72 11.08 42.34 8.20002 41.58C5.36002 40.78 2.94002 39.66 0.940015 38.22L4.72002 30.78C6.32002 31.98 8.16002 32.92 10.24 33.6C12.36 34.24 14.52 34.56 16.72 34.56C19.16 34.56 21.08 34.1 22.48 33.18C23.88 32.22 24.58 30.88 24.58 29.16C24.58 25.72 21.96 24 16.72 24H12.28V17.58L20.92 7.8H3.04002V-2.86102e-06H32.44V6.3L22.96 17.1Z" fill="#FA002C"/>
</svg>
