<svg width="34" height="43" viewBox="0 0 34 43" fill="none" xmlns="http://www.w3.org/2000/svg">
<path d="M33.7201 35.08V43H1.98012V36.7L18.1801 21.4C19.9001 19.76 21.0601 18.36 21.6601 17.2C22.2601 16 22.5601 14.82 22.5601 13.66C22.5601 11.98 21.9801 10.7 20.8201 9.82C19.7001 8.9 18.0401 8.44 15.8401 8.44C14.0001 8.44 12.3401 8.8 10.8601 9.52C9.38012 10.2 8.14012 11.24 7.14012 12.64L0.0601221 8.08C1.70012 5.64 3.96012 3.74 6.84012 2.38C9.72012 0.979999 13.0201 0.279999 16.7401 0.279999C19.8601 0.279999 22.5801 0.799999 24.9001 1.84C27.2601 2.84 29.0801 4.28 30.3601 6.16C31.6801 8 32.3401 10.18 32.3401 12.7C32.3401 14.98 31.8601 17.12 30.9001 19.12C29.9401 21.12 28.0801 23.4 25.3201 25.96L15.6601 35.08H33.7201Z" fill="#FA002C"/>
</svg>
