<svg width="52" height="36" viewBox="0 0 52 36" fill="none" xmlns="http://www.w3.org/2000/svg">
<path d="M50.1048 5.84704C49.5261 3.6684 47.8213 1.95242 45.6566 1.37C41.7331 0.312012 26 0.312012 26 0.312012C26 0.312012 10.267 0.312012 6.34325 1.37011C4.17861 1.95253 2.47378 3.6684 1.89518 5.84715C0.843872 9.79614 0.843872 18.0357 0.843872 18.0357C0.843872 18.0357 0.843872 26.2753 1.89518 30.2242C2.47378 32.403 4.17861 34.0474 6.34325 34.6299C10.267 35.6879 26 35.6879 26 35.6879C26 35.6879 41.7331 35.6879 45.6566 34.6298C47.8213 34.0473 49.5261 32.4029 50.1048 30.2241C51.1562 26.2752 51.1562 18.0356 51.1562 18.0356C51.1562 18.0356 51.1562 9.79614 50.1048 5.84704Z" fill="#FF0000"/>
<path d="M20.8546 25.5164V10.5547L34.0043 18.0357L20.8546 25.5164Z" fill="white"/>
</svg>
